<svg version="1.0" viewBox="0 0 300.000000 84.000000" xmlns="http://www.w3.org/2000/svg">
    <g transform="translate(0.000000,84.000000) scale(0.050000,-0.050000)" fill="#156289" stroke="none">
        <path d="M3931 1553 l-51 -51 11 -646 c13 -691 13 -696 118 -696 109 0 131 45 131 268 l0 194 253 -231 c259 -237 311 -265 376 -200 72 73 41 131 -160 308 -105 91 -188 173 -185 182 3 8 78 80 166 159 181 164 205 204 160 273 -61 93 -120 66 -375 -175 l-235 -221 0 409 c0 437 0 438 -104 464 -42 11 -65 3 -105 -37z"/>
        <path d="M910 1473 c-353 -117 -447 -295 -452 -853 l-3 -370 272 -6 c317 -6 308 -14 151 150 l-122 127 7 228 c10 306 101 431 315 431 336 0 432 -519 110 -591 -32 -7 -71 -17 -88 -22 -20 -6 20 -58 133 -168 l162 -159 237 0 237 0 -134 135 -134 135 49 120 c195 475 -266 1001 -740 843z"/>
        <path d="M2960 1154 l-50 -25 -5 -445 c-6 -504 -2 -524 112 -524 116 0 123 17 124 319 2 393 71 520 269 494 138 -18 150 -50 150 -411 0 -358 14 -402 128 -402 126 0 136 32 129 423 -10 493 -60 577 -345 577 -147 0 -241 -39 -302 -126 l-30 -43 0 51 c0 100 -91 157 -180 112z"/>
        <path d="M5217 1158 c-181 -28 -297 -142 -297 -294 0 -155 84 -230 320 -284 186 -43 240 -71 240 -129 0 -119 -230 -148 -418 -52 -97 49 -157 40 -174 -28 -56 -226 536 -310 747 -106 195 188 85 390 -261 476 -184 46 -234 76 -234 139 0 105 199 132 361 49 119 -60 179 -43 179 49 0 129 -224 217 -463 180z"/>
        <path d="M2156 1128 c-143 -44 -202 -131 -141 -207 l35 -43 135 51 c222 83 352 66 393 -52 45 -129 43 -131 -184 -141 -310 -14 -433 -94 -434 -284 -1 -260 393 -402 573 -206 l67 73 0 -55 c0 -95 129 -147 196 -80 45 45 32 706 -16 806 -78 161 -353 222 -624 138z m444 -549 c0 -233 -349 -348 -391 -129 -22 114 63 162 296 168 83 2 95 -3 95 -39z"/>
    </g>
</svg>
